# xmcd CD database file
#
# Track frame offsets:
#	150
#	12117
#	22859
#	36387
#	46890
#	60064
#	72836
#	84563
#	96087
#	107682
#	120940
#	132451
#
# Disc length: 1918 seconds
#
# Revision: 0
# Processed by: cddbd v1.5.2PL0 Copyright (c) Steve Scherf et al.
# Submitted via: CDex 1.51
#
DISCID=8a077c0c
DTITLE=Louis Jordan - Man, We're Wailin'
DYEAR=1900
DGENRE=Blues
TTITLE0=Saturday Night Fish Fry
TTITLE1=Sunday
TTITLE2=The Nearness Of You
TTITLE3=I've Found My Peace Of Mind
TTITLE4=I Never Had A Chance
TTITLE5=Got My Mo-Jo Working
TTITLE6=A Man Ain't A Man
TTITLE7=The Slop
TTITLE8=Sweet Lorraine
TTITLE9=Route 66
TTITLE10=The Jamf
TTITLE11=I Hadn't Anyone Till You
EXTD=
EXTT0=
EXTT1=
EXTT2=
EXTT3=
EXTT4=
EXTT5=
EXTT6=
EXTT7=
EXTT8=
EXTT9=
EXTT10=
EXTT11=
PLAYORDER=
